<svg xmlns="http://www.w3.org/2000/svg" xmlns:xlink="http://www.w3.org/1999/xlink" version="1.1" id="Layer_1" x="0px" y="0px" width="100px" height="77px" viewBox="0 0 100 77" enable-background="new 0 0 100 77" xml:space="preserve">
<g>
	<path d="M84.23,73H17.968C8.91,73,1.54,65.63,1.54,56.571V20.429C1.54,11.37,8.91,4,17.968,4H84.23   c9.059,0,16.428,7.37,16.428,16.429v36.143C100.658,65.63,93.289,73,84.23,73z M17.968,13.857c-3.624,0-6.571,2.948-6.571,6.571   v36.143c0,3.624,2.948,6.571,6.571,6.571H84.23c3.623,0,6.571-2.947,6.571-6.571V20.429c0-3.624-2.948-6.571-6.571-6.571H17.968z"/>
</g>
<path d="M42.611,23.34c0-1.344,0.898-1.809,1.995-1.029l20.802,14.774c1.096,0.779,1.096,2.053,0,2.832L44.605,54.69  c-1.097,0.778-1.995,0.315-1.995-1.031V23.34z"/>
</svg>